# File created by Blade
# Date/Time:  Thu Jan 22 19:13:14 2015
# Frame Rate: 120.000 fps
#------------------------------------------------------
:FULLY-SPECIFIED
:DEGREES
2475
root 1.185601 25.642242 -7.543357 71.168022 -54.194966 -21.480904
RightUpLeg -104.065979 4.541688 13.427774
RightLeg 58.817552 -0.000000 -0.000000
RightFoot -12.053585 2.532596 -0.364749
RightToeBase 0.418938 -0.000000 -0.000000
LeftUpLeg -13.047343 41.675178 28.358934
LeftLeg 7.382465 -0.000000 -0.000000
LeftFoot -24.583302 0.716846 -47.415845
LeftToeBase 8.024980 -0.000000 -0.000000
Spine 25.830076 -30.639684 -14.211149
RightShoulder -25.305612 -11.603619 -25.204366
RightArm -1.136797 49.841105 38.420433
RightForeArm 20.965721 -0.000000 18.499404
RightHand 19.783757 0.000000 -17.215090
RightHandThumb1 -24.326973 -0.000000 -32.862282
LeftShoulder -1.691179 -13.570337 26.547862
LeftArm 35.942621 -3.999740 -64.341999
LeftForeArm 19.248449 -0.000000 6.874590
LeftHand -2.070463 0.000000 -3.676940
LeftHandThumb1 -26.253704 0.000000 33.147579
Head -17.107016 -19.058534 15.778317
2476
root 1.167116 25.664409 -7.535767 70.505800 -54.051656 -20.981831
RightUpLeg -103.874625 4.238981 13.226764
RightLeg 58.920859 -0.000000 -0.000000
RightFoot -12.198447 2.355113 -0.225527
RightToeBase 0.421653 -0.000000 -0.000000
LeftUpLeg -13.100660 41.437559 28.359689
LeftLeg 7.488893 -0.000000 -0.000000
LeftFoot -24.290069 0.798064 -47.361207
LeftToeBase 7.844842 -0.000000 -0.000000
Spine 25.540032 -30.473949 -13.902753
RightShoulder -25.242636 -11.619732 -25.119296
RightArm -0.486139 49.808085 38.978187
RightForeArm 20.922549 -0.000000 18.528243
RightHand 19.894994 -0.000000 -17.046594
RightHandThumb1 -24.326973 -0.000000 -32.862282
LeftShoulder -1.789162 -13.521284 26.422709
LeftArm 35.841334 -3.510004 -64.876676
LeftForeArm 19.064867 -0.000000 7.050128
LeftHand -2.163435 -0.000000 -4.145307
LeftHandThumb1 -26.253704 0.000000 33.147579
Head -17.217566 -18.216229 15.597386
2477
root 1.147081 25.686761 -7.529508 69.852747 -53.920109 -20.507573
RightUpLeg -103.663077 3.962807 12.983924
RightLeg 59.012237 -0.000000 -0.000000
RightFoot -12.353594 2.149705 -0.093735
RightToeBase 0.515451 -0.000000 -0.000000
LeftUpLeg -13.100832 41.153101 28.386130
LeftLeg 7.556275 -0.000000 -0.000000
LeftFoot -24.039197 0.959340 -47.299637
LeftToeBase 7.723458 -0.000000 -0.000000
Spine 25.247193 -30.302690 -13.646453
RightShoulder -25.088898 -11.519355 -25.120947
RightArm 0.014218 49.591381 39.442257
RightForeArm 20.850936 -0.000000 18.481513
RightHand 19.901447 -0.000000 -17.215490
RightHandThumb1 -24.326973 -0.000000 -32.862282
LeftShoulder -1.925314 -13.310159 26.318061
LeftArm 35.862468 -3.057357 -65.429667
LeftForeArm 18.946492 0.000000 7.192277
LeftHand -1.932017 0.000000 -4.513413
LeftHandThumb1 -26.253704 0.000000 33.147579
Head -17.269630 -17.313394 15.430030
2478
root 1.124768 25.712522 -7.520807 69.175708 -53.728703 -20.028044
RightUpLeg -103.414995 3.655136 12.799234
RightLeg 59.101453 -0.000000 -0.000000
RightFoot -12.515031 1.954528 0.003296
RightToeBase 0.500504 -0.000000 -0.000000
LeftUpLeg -13.101214 40.830524 28.471059
LeftLeg 7.643141 -0.000000 -0.000000
LeftFoot -23.761496 1.062365 -47.289686
LeftToeBase 7.567880 -0.000000 -0.000000
Spine 25.009056 -30.137930 -13.330338
RightShoulder -25.005466 -11.505807 -25.054548
RightArm 0.717456 49.469064 40.060979
RightForeArm 20.823981 -0.000000 18.466008
RightHand 19.879056 -0.000000 -17.419646
RightHandThumb1 -24.326973 -0.000000 -32.862282
LeftShoulder -2.070679 -13.293686 26.201016
LeftArm 35.741218 -2.573601 -66.015629
LeftForeArm 18.868574 -0.000000 7.309828
LeftHand -1.840118 -0.000000 -5.037442
LeftHandThumb1 -26.253704 0.000000 33.147579
Head -17.430588 -16.500979 15.252100
2479
root 1.103914 25.737612 -7.512151 68.510056 -53.579326 -19.526391
RightUpLeg -103.216686 3.366705 12.543686
RightLeg 59.210709 -0.000000 -0.000000
RightFoot -12.624263 1.736234 0.052199
RightToeBase 0.377699 -0.000000 -0.000000
LeftUpLeg -13.127971 40.524908 28.471936
LeftLeg 7.702267 -0.000000 -0.000000
LeftFoot -23.486264 1.197802 -47.268981
LeftToeBase 7.440457 -0.000000 -0.000000
Spine 24.699780 -29.956238 -13.045826
RightShoulder -24.870443 -11.391523 -25.072816
RightArm 1.204227 49.253241 40.555279
RightForeArm 20.797220 -0.000000 18.477623
RightHand 19.935824 -0.000000 -17.343817
RightHandThumb1 -24.326973 -0.000000 -32.862282
LeftShoulder -2.168876 -13.283886 26.095179
LeftArm 35.549453 -1.983696 -66.508440
LeftForeArm 18.880034 -0.000000 7.442343
LeftHand -1.739103 -0.000000 -5.212931
LeftHandThumb1 -26.253704 0.000000 33.147579
Head -17.555284 -15.704986 15.038750
2480
root 1.079054 25.763778 -7.497884 67.784230 -53.418174 -18.988904
RightUpLeg -102.982117 3.049505 12.281519
RightLeg 59.326134 -0.000000 -0.000000
RightFoot -12.772772 1.491401 0.125629
RightToeBase 0.413091 -0.000000 -0.000000
LeftUpLeg -13.121616 40.242162 28.475668
LeftLeg 7.748661 -0.000000 -0.000000
LeftFoot -23.115936 1.260518 -47.282552
LeftToeBase 7.258857 -0.000000 -0.000000
Spine 24.462403 -29.828152 -12.803549
RightShoulder -24.740063 -11.222674 -25.062419
RightArm 1.748428 49.054777 41.079089
RightForeArm 20.843236 0.000000 18.518146
RightHand 20.014179 0.000000 -17.362060
RightHandThumb1 -24.326973 -0.000000 -32.862282
LeftShoulder -2.360241 -12.939236 25.956237
LeftArm 35.686274 -1.369769 -66.906795
LeftForeArm 18.808348 -0.000000 7.546436
LeftHand -1.639340 -0.000000 -5.254355
LeftHandThumb1 -26.253704 0.000000 33.147579
Head -17.671442 -14.801561 14.854915
2481
root 1.053786 25.788557 -7.485311 67.060688 -53.237610 -18.467058
RightUpLeg -102.738334 2.737391 12.049388
RightLeg 59.456263 -0.000000 -0.000000
RightFoot -12.909279 1.208998 0.064765
RightToeBase 0.318126 -0.000000 -0.000000
LeftUpLeg -13.082610 39.986584 28.502339
LeftLeg 7.730175 -0.000000 -0.000000
LeftFoot -22.719341 1.384653 -47.226121
LeftToeBase 7.049325 -0.000000 -0.000000
Spine 24.198036 -29.698553 -12.532313
RightShoulder -24.603822 -11.196301 -25.068980
RightArm 2.440654 48.999356 41.793031
RightForeArm 20.787545 0.000000 18.592117
RightHand 20.136687 -0.000000 -17.490824
RightHandThumb1 -24.326973 -0.000000 -32.862282
LeftShoulder -2.478464 -12.738867 25.828541
LeftArm 35.617435 -0.800299 -67.347341
LeftForeArm 18.879497 0.000000 7.647543
LeftHand -1.723834 -0.000000 -5.392947
LeftHandThumb1 -26.253704 0.000000 33.147579
Head -17.716763 -13.945734 14.497603
2482
root 1.028438 25.812940 -7.466670 66.290397 -53.104844 -17.884426
RightUpLeg -102.514450 2.392735 11.792773
RightLeg 59.601984 -0.000000 -0.000000
RightFoot -12.994145 0.948330 0.012831
RightToeBase 0.182790 -0.000000 -0.000000
LeftUpLeg -13.040399 39.737400 28.436746
LeftLeg 7.676792 -0.000000 -0.000000
LeftFoot -22.279661 1.474032 -47.233354
LeftToeBase 6.819556 -0.000000 -0.000000
Spine 23.935936 -29.553743 -12.318579
RightShoulder -24.461870 -11.088810 -25.106623
RightArm 2.936376 48.861287 42.380242
RightForeArm 20.911385 0.000000 18.722139
RightHand 20.255026 -0.000000 -16.656326
RightHandThumb1 -24.326973 -0.000000 -32.862282
LeftShoulder -2.621820 -12.615528 25.683935
LeftArm 35.528793 -0.098421 -67.717089
LeftForeArm 18.844784 0.000000 7.681782
LeftHand -1.859053 -0.000000 -5.555861
LeftHandThumb1 -26.253704 0.000000 33.147579
Head -17.829353 -13.198141 14.287465
2483
root 0.998811 25.834359 -7.451511 65.494350 -52.934011 -17.296090
RightUpLeg -102.263146 2.040514 11.595777
RightLeg 59.761045 -0.000000 -0.000000
RightFoot -13.133998 0.728365 0.054136
RightToeBase 0.071863 -0.000000 -0.000000
LeftUpLeg -13.004124 39.545738 28.410228
LeftLeg 7.657769 -0.000000 -0.000000
LeftFoot -21.799404 1.513073 -47.188690
LeftToeBase 6.686644 -0.000000 -0.000000
Spine 23.699095 -29.449396 -12.094730
RightShoulder -24.313215 -11.243613 -25.050961
RightArm 3.726944 48.851981 43.191205
RightForeArm 20.947744 0.000000 18.841674
RightHand 20.277295 -0.000000 -16.377826
RightHandThumb1 -24.326973 -0.000000 -32.862282
LeftShoulder -2.808226 -12.422002 25.572247
LeftArm 35.458431 0.581486 -68.113669
LeftForeArm 18.718090 -0.000000 7.695333
LeftHand -1.861109 -0.000000 -5.410745
LeftHandThumb1 -26.253704 0.000000 33.147579
Head -17.943650 -12.509420 13.994536
2484
root 0.973774 25.857788 -7.431567 64.691927 -52.784139 -16.671759
RightUpLeg -102.053735 1.667667 11.332699
RightLeg 59.961788 -0.000000 -0.000000
RightFoot -13.268988 0.506669 -0.020094
RightToeBase -0.033658 -0.000000 0.000000
LeftUpLeg -12.988339 39.372495 28.305417
LeftLeg 7.592310 -0.000000 -0.000000
LeftFoot -21.289402 1.549061 -47.065933
LeftToeBase 6.491124 -0.000000 -0.000000
Spine 23.423621 -29.337542 -11.881394
RightShoulder -24.168714 -11.034997 -25.166767
RightArm 4.174025 48.598040 43.737833
RightForeArm 20.850914 0.000000 18.971787
RightHand 20.161759 0.000000 -16.579685
RightHandThumb1 -24.326973 -0.000000 -32.862282
LeftShoulder -2.954868 -12.281924 25.451609
LeftArm 35.303847 1.275935 -68.468356
LeftForeArm 18.534497 -0.000000 7.723433
LeftHand -1.720387 -0.000000 -5.464253
LeftHandThumb1 -26.253704 0.000000 33.147579
Head -18.021622 -11.811369 13.676156
